inDegrees=no
num_controls=7
num_derivatives=13
num_iterations=144
num_multipliers=7
num_parameters=0
num_slacks=7
num_states=26
objective=0.508879
objective_accelerations=0.003317
objective_balance=0.003494
objective_effort=0.008098
objective_height=0.400464
objective_ligament=0.093506
solver_duration=1982.197730
status=Solve_Succeeded
success=true
DataType=double
version=3
OpenSimVersion=4.5
endheader
time	/jointset/ground_pelvis/pelvis_tilt/value	/jointset/ground_pelvis/pelvis_tx/value	/jointset/ground_pelvis/pelvis_ty/value	/jointset/hip_l/hip_flexion_l/value	/jointset/hip_l/hip_adduction_l/value	/jointset/hip_l/hip_rotation_l/value	/jointset/back/lumbar_extension/value	/jointset/patellofemoral_l/patellar_flexion_l/value	/jointset/knee_l/knee_flexion_l/value	/jointset/knee_l/knee_adduction_l/value	/jointset/knee_l/knee_rotation_l/value	/jointset/ankle_l/ankle_angle_l/value	/jointset/subtalar_l/subtalar_angle_l/value	/jointset/ground_pelvis/pelvis_tilt/speed	/jointset/ground_pelvis/pelvis_tx/speed	/jointset/ground_pelvis/pelvis_ty/speed	/jointset/hip_l/hip_flexion_l/speed	/jointset/hip_l/hip_adduction_l/speed	/jointset/hip_l/hip_rotation_l/speed	/jointset/back/lumbar_extension/speed	/jointset/patellofemoral_l/patellar_flexion_l/speed	/jointset/knee_l/knee_flexion_l/speed	/jointset/knee_l/knee_adduction_l/speed	/jointset/knee_l/knee_rotation_l/speed	/jointset/ankle_l/ankle_angle_l/speed	/jointset/subtalar_l/subtalar_angle_l/speed	/forceset/tau_hip_flexion_l	/forceset/tau_hip_adduction_l	/forceset/tau_hip_rotation_l	/forceset/tau_knee_flexion_l	/forceset/tau_ankle_angle_l	/forceset/tau_subtalar_angle_l	/forceset/tau_lumbar_extension	lambda_cid13_p0	lambda_cid13_p1	lambda_cid13_p2	lambda_cid13_p3	lambda_cid13_p4	lambda_cid13_p5	lambda_cid14_p0	/jointset/ground_pelvis/pelvis_tilt/accel	/jointset/ground_pelvis/pelvis_tx/accel	/jointset/ground_pelvis/pelvis_ty/accel	/jointset/hip_l/hip_flexion_l/accel	/jointset/hip_l/hip_adduction_l/accel	/jointset/hip_l/hip_rotation_l/accel	/jointset/back/lumbar_extension/accel	/jointset/patellofemoral_l/patellar_flexion_l/accel	/jointset/knee_l/knee_flexion_l/accel	/jointset/knee_l/knee_adduction_l/accel	/jointset/knee_l/knee_rotation_l/accel	/jointset/ankle_l/ankle_angle_l/accel	/jointset/subtalar_l/subtalar_angle_l/accel	gamma_cid13_p0	gamma_cid13_p1	gamma_cid13_p2	gamma_cid13_p3	gamma_cid13_p4	gamma_cid13_p5	gamma_cid14_p0
0	-0.004765209598941385	0.04157706060328298	0.9245751588371633	0.3085816938045678	-0.2404427572562671	-0.3271755780658762	-0.3879492264334186	0.2499269421185046	0.2499269421184919	-0.0580685485036169	-0.1745281280761061	-0.0008036623358878681	0.0583609149435303	0	0	0	0	0	0	0	0	0	0	0	0	0	0.004492603911560073	0.04003271888536461	-0.009300270644373245	-0.247726731029645	0.2770016287121255	-0.08026663785285326	0.09316425902672083	37.84473858554723	27.59303599184464	-4.121872350868649	-22.75446241613118	-702.7179772630419	-17.99684126884113	-22.8278650829651	-0.03121441589020248	0.1715118418474948	0.03646107652221783	-0.2582200871936611	0.1391301652206396	-0.123344469811719	-0.9226213204099006	-0.1956503649929114	-0.1956503649929114	0.2336901969677795	0.009906557175279688	0.1694974692817041	0.2137960501971422	1.287934915534649e-09	5.491847559608501e-09	-3.164759330787401e-09	-5.077416571731327e-10	2.838261247168125e-09	7.62210388029276e-09	5.664240921396724e-10
0.01	-0.004765361042238001	0.04158417262198592	0.9245768936281541	0.308569354021909	-0.2404357886878731	-0.3271815084073424	-0.3879942034816142	0.2499176062697132	0.2499176062697188	-0.05805673483896404	-0.1745276686863803	-0.0007967330798430588	0.05837101453614976	0.000127394161900514	0.001276213689735642	0.000341044981849419	-0.002440585735948227	0.001398252586083211	-0.001173401311813199	-0.008902082040873184	-0.001841704938243999	-0.001841704938243519	0.002376506094165537	8.328004934746469e-05	0.001225149865649574	0.001962175528604426	-0.007459256022361546	0.02712444973059342	-0.008842386975514767	-0.2254494183037629	0.2372733768730449	-0.05572269766882353	0.1007222065534693	26.31288355069346	18.52578262947752	-2.188608117287759	-15.04929243710639	-702.3756662305453	-35.50886878566224	-22.82769518539195	0.05836870141105175	0.08374752299391268	0.03203979419898758	-0.2328721958197589	0.1408539088633248	-0.1124373025793321	-0.8600025060326228	-0.1746109486290104	-0.1746109486289433	0.2416970396305862	0.00624844872593363	0.07491881934999607	0.1787663416407808	7.964215247121681e-10	3.5846315583494e-09	-2.256462184702098e-09	-3.099284533410758e-10	1.071320615919604e-09	4.927269548018805e-09	3.927932072425143e-10
0.02	-0.004759508070088172	0.04159966105567748	0.9245818615859995	0.308533429506111	-0.2404147013729085	-0.3271987926300691	-0.3881254015222351	0.2498906172934841	0.2498906172934899	-0.05802074286855809	-0.1745266345521545	-0.0007823733103166971	0.05839900349154479	0.001200883091044469	0.001675282997725472	0.00064663337093145	-0.00471694663288135	0.002823749314588785	-0.002270776252157659	-0.01724419848599873	-0.00353062549203856	-0.003530625492037598	0.004835661147920191	0.000114948895141873	0.001486102697036844	0.003577872555155291	-0.01941111595604446	0.01421618057588411	-0.008384503306793523	-0.2031721055777656	0.1975451250340164	-0.03117875748470675	0.1082801540803582	14.78007204052509	9.458850935357182	-0.2555712841682881	-7.345628352401586	-702.0491939869481	-53.02517807142029	-22.8272024451409	0.1580045375586349	-0.003917034501798321	0.02936975796873068	-0.225375119390607	0.1445789937050664	-0.108139195518173	-0.8106282012602907	-0.1650934881029424	-0.1650934881029419	0.250219988885563	-0.0004156835355852463	-0.02334193757088514	0.1445003497863347	3.049081338896873e-10	1.677415557090299e-09	-1.348165038616796e-09	-1.121152495090188e-10	-6.956200153289167e-10	2.23243521574485e-09	2.191623223453561e-10
0.03	-0.00473903395028301	0.04161565873032202	0.924589761135892	0.3084752127926466	-0.2403792373033345	-0.3272268350377245	-0.3883372214216337	0.249847285837685	0.2498472858376887	-0.05795981474324743	-0.1745255531063019	-0.0007692387919189878	0.05844178679444636	0.002966500961008634	0.001468302194770117	0.0009325278000813826	-0.006932999482149056	0.00427138032932033	-0.003332921947484145	-0.02502524965279591	-0.005131648732196705	-0.005131648732196591	0.007354210395509521	9.955137512397115e-05	0.001078299336000148	0.004956906573553362	-0.02548934926577612	0.03276813235301283	-0.008459505804829417	-0.1923427653103312	0.1877088543838025	-0.04281403699125418	0.1123165927684479	10.99227955742857	14.77345512657264	-0.6438977985741322	-3.843962484390002	-702.0698392408768	-40.81449515335146	-22.82641834234072	0.1967244131531674	-0.03748108560371739	0.0280868179828266	-0.2207109033364955	0.1452026363539767	-0.1045345030729451	-0.747663813067896	-0.1570042445947337	-0.1570042445948045	0.2533094189050283	-0.00237037424733973	-0.05887470848208969	0.1313226055883769	4.056150169190255e-10	4.074892516066269e-10	-8.920767522171417e-10	-8.549257044354213e-11	-3.323432219690328e-10	7.949586267742758e-10	2.234355938106386e-10
0.04	-0.004698726851499991	0.04162790810045478	0.9246004971365942	0.3083946374435675	-0.2403292274274114	-0.3272653553516413	-0.3886240158804349	0.2497880646489614	0.2497880646489664	-0.05787357372022348	-0.1745246793532251	-0.000762057341754038	0.05849770397307618	0.005167478888522952	0.0009256220953668596	0.001213923532864658	-0.009188673757075404	0.005732910583922211	-0.004366357504137884	-0.03223911036672115	-0.006708572077254059	-0.006708572077254835	0.009898240691468311	7.3410334603259e-05	0.0002954890504811395	0.006204647700820889	-0.03156758257543616	0.05132008413013674	-0.008534508302832642	-0.1815134250428751	0.1778725837335893	-0.05444931649780692	0.1163530314565962	7.202668526927698	20.08830788681943	-1.0321841581904	-0.3341380793786812	-702.1073719106585	-28.60809004632306	-22.82536068282278	0.2450765490687987	-0.07105689379149437	0.028470018695391	-0.2332994045223053	0.1473588416790986	-0.1023971677837513	-0.6971901106858264	-0.1602735090827153	-0.1602735090827232	0.2553161985594224	-0.002564387636318621	-0.09834332246746119	0.1182417715601465	5.185326272442777e-10	-8.492970601497171e-10	-4.453123598316241e-10	-6.239959291964445e-11	7.485558014566397e-11	-6.165930602725174e-10	2.313769922112292e-10
